<svg width="24" height="24" viewBox="0 0 24 24" fill="none" xmlns="http://www.w3.org/2000/svg">
  <path d="M16.5 3H7.5C4.462 3 2 5.462 2 8.5V16.5C2 19.538 4.462 22 7.5 22H16.5C19.538 22 22 19.538 22 16.5V8.5C22 5.462 19.538 3 16.5 3ZM20 16.5C20 18.433 18.433 20 16.5 20H7.5C5.567 20 4 18.433 4 16.5V8.5C4 6.567 5.567 5 7.5 5H16.5C18.433 5 20 6.567 20 8.5V16.5Z" fill="#E1306C"/>
  <path d="M12 7.5C9.515 7.5 7.5 9.515 7.5 12C7.5 14.485 9.515 16.5 12 16.5C14.485 16.5 16.5 14.485 16.5 12C16.5 9.515 14.485 7.5 12 7.5ZM12 14.5C10.619 14.5 9.5 13.381 9.5 12C9.5 10.619 10.619 9.5 12 9.5C13.381 9.5 14.5 10.619 14.5 12C14.5 13.381 13.381 14.5 12 14.5Z" fill="#E1306C"/>
  <path d="M17.25 7.25C17.802 7.25 18.25 6.802 18.25 6.25C18.25 5.698 17.802 5.25 17.25 5.25C16.698 5.25 16.25 5.698 16.25 6.25C16.25 6.802 16.698 7.25 17.25 7.25Z" fill="#E1306C"/>
</svg>
